PathFileType	3	(X/Y/Z)	D:\Jess\Healthy\Labelled\HA18\20250730\SRRun01.trc
DataRate	CameraRate	NumFrames	NumMarkers	Units	OrigDataRate	OrigDataStartFrame	OrigNumFrames
250.0	250.0	4	33	mm	250.0	35937	2501
Frame#	Time	C7			T10			CLAV			LSHO			RSHO			LASIS			RASIS			LPSIS			RPSIS			LILCR			RILCR			LGTR			LTHI			LLTHI			LLEP			LPSH			LLSH			LDSH			LLMAL			LTOE			L5TH			LHEE			RGTR			RTHI			RLTHI			RLEP			RPSH			RLSH			RDSH			RLMAL			RTOE			R5TH			RHEE			
		X1	Y1	Z1	X2	Y2	Z2	X3	Y3	Z3	X4	Y4	Z4	X5	Y5	Z5	X6	Y6	Z6	X7	Y7	Z7	X8	Y8	Z8	X9	Y9	Z9	X10	Y10	Z10	X11	Y11	Z11	X12	Y12	Z12	X13	Y13	Z13	X14	Y14	Z14	X15	Y15	Z15	X16	Y16	Z16	X17	Y17	Z17	X18	Y18	Z18	X19	Y19	Z19	X20	Y20	Z20	X21	Y21	Z21	X22	Y22	Z22	X23	Y23	Z23	X24	Y24	Z24	X25	Y25	Z25	X26	Y26	Z26	X27	Y27	Z27	X28	Y28	Z28	X29	Y29	Z29	X30	Y30	Z30	X31	Y31	Z31	X32	Y32	Z32	X33	Y33	Z33	

938	143.744	1062.065524653439	1420.328852642955	-316.5363703960524	980.075742925816	1181.656138456964	-313.0728832915233	1169.838892167308	1294.820423442732	-301.05406933992	1143.623113329065	1360.647161838164	-463.6868609444043	1109.194401790007	1369.066674472347	-154.63930631025	1115.745024051283	932.8283820170709	-429.360608988867	1133.506619133074	920.8859684387136	-205.8971530374852	930.8494913299592	973.4785521539792	-305.9964510983061	932.9017485745943	967.7873938784206	-265.7087565715542	1032.285233373629	1007.775816405466	-459.3206773422767	1065.928232505622	999.5880953163771	-153.6846539865565	1021.076084394525	847.1040714647161	-491.6645874476378	1159.056944947484	679.8060620771114	-417.2075177302434	1051.517547503334	572.5660477163516	-443.5201680178531	1049.126218601387	454.902189340541	-416.143960757252	1067.67744031148	366.2643469354489	-364.7403291804484	934.8885890429432	263.1500404306806	-407.8282382223818	949.5301706341337	175.0846264935439	-342.1701099810472	847.2724676124363	120.7813999041833	-362.0166340643768	980.3441786099789	56.84754513349594	-365.3185446032817	949.1381597469087	41.20781084640332	-406.3094540939626	776.2243539474243	104.7231877675089	-312.6096848072298	1072.414807822295	831.7520048524045	-121.5163515765568	1225.711085908478	701.9917433763483	-199.9104317808939	1174.162254299709	579.6131631771984	-146.0923609643526	1176.02088867474	464.7116099863346	-167.4271596483763	1170.310012856162	390.135177717959	-209.3769316989237	1011.618425509868	378.0947150944519	-157.1153743294359	983.4182228879231	256.1359771330203	-198.4499810388386	894.8085502820318	239.6937235702792	-170.3905038051109	950.2887796005076	118.8185439775315	-162.3430357862401	906.7917579098149	123.1668370542066	-124.3424572704746	817.4940542117449	269.0061113912545	-231.6337338523545	
939	143.748	1062.008330524063	1422.601212662197	-316.644980511104	980.5577032613559	1183.896410339089	-314.2174293618128	1169.750523872231	1297.689805640167	-299.830392643705	1145.270035709841	1363.744880845916	-462.6357552552461	1106.966673969328	1371.913502640338	-154.1114922216168	1116.355088916004	934.6275995226024	-429.0046230806473	1133.366865029485	924.6453597692788	-205.5201669955733	931.1801435336889	975.9395330415482	-307.3464479369148	932.865051534421	970.1904283738382	-267.0905969925581	1033.406099462673	1010.503677559868	-459.1865388697065	1065.656135840851	1003.800696774591	-153.4178876254015	1021.393080451404	849.1360202405656	-491.3665065063169	1155.362305810223	679.7953546488087	-414.2680897092724	1046.143428032004	574.4407211640837	-442.9064355924231	1041.009060855364	456.7131686486427	-415.7218475267971	1058.404538662314	367.7308450921918	-364.2726331540497	925.230067692113	265.3861405913958	-407.8473359514632	939.3733494928373	176.7991137853126	-342.0814728385346	837.0653637630164	122.8606368821972	-362.2209325393214	969.0257804501409	56.89011221689473	-365.1653527794381	937.7378504594298	41.37869467125793	-406.1651357675021	765.9528320787854	107.8226886853386	-312.9702288749455	1071.810003222404	835.386214553347	-121.2155557939186	1226.792938391058	706.9630056829006	-199.6351348874267	1177.49118925732	583.8390606028356	-146.0533115532166	1180.419024447681	468.4607331935638	-167.8058003736133	1176.650461007599	393.6782741956844	-209.8095010001375	1018.429513399566	376.3173382385334	-157.1483022059846	994.1711103411774	253.663327091668	-199.1668024961353	905.9925070779524	234.1684886299193	-171.1457833621078	965.9787277240541	115.5345606496894	-163.2252105567676	922.3442688033419	118.1125016794193	-125.2395845233595	827.6045727913051	260.6481327687655	-232.3828549171391	
940	143.752	1061.974135778615	1424.962907427167	-316.7081007874779	981.0817476710163	1186.21682425153	-315.3748492132271	1169.678045042961	1300.651680097039	-298.6008351711853	1146.858210141251	1366.95553346767	-461.5546221005951	1104.792176822388	1374.797370661312	-153.6187604401606	1117.07827837473	936.3487110150473	-428.6460537308017	1133.254818003245	928.4245272529199	-205.097201351783	931.5786768726276	978.4434720123929	-308.8242449732525	932.84039862241	972.6309951159847	-268.5817558801049	1034.900686101735	1013.038390022471	-459.0499715157582	1065.508526785272	1007.965962079175	-153.142681391822	1021.84280558578	851.1251138828957	-491.052958220991	1151.762021199394	679.9391722305294	-411.2424856354855	1040.929981466839	576.4887665767247	-442.305946916019	1032.942894973909	458.8133534719137	-415.3640163689139	1049.145473771128	369.4851219477994	-363.8983360199731	915.627949857272	267.905550440259	-407.9768733085064	929.3453618712389	178.7307621404193	-342.0641280212275	827.0081209011455	125.0798530147786	-362.4878198537116	957.7278995951531	56.98182888576856	-365.0310839163144	926.3586359905433	41.55662621174476	-406.0332315256379	755.8561530611216	111.1618225900089	-313.3735442365823	1071.317428024431	839.0726239045362	-120.8533448445172	1227.732012120371	712.0405754456513	-199.4483827941135	1180.634321402723	588.1480723709525	-146.0924591561184	1184.507480353514	472.2712652193098	-168.1791238255472	1182.757455100887	397.3147600840711	-210.2120301036024	1025.15792896244	374.4507466676353	-157.2164137631247	1005.044860190374	251.1946174935979	-199.9411445827747	917.4037306982642	228.547055772946	-171.9860695023678	981.9251811301466	112.3869921744136	-164.1524188773737	938.1949742093839	113.1329662925791	-126.2099221698243	838.0483681372569	252.0758327218641	-233.261939992381	
941	143.756	1061.964131177799	1427.402047878524	-316.7304068069565	981.6464799063731	1188.607099084254	-316.5414528705015	1169.620705305723	1303.689673569758	-297.3726823857372	1148.38846574495	1370.257850350506	-460.4491180716412	1102.683481743361	1377.702380671353	-153.1693154365595	1117.915120153461	937.9906125774726	-428.2782579340589	1133.171945252595	932.1941830904134	-204.6324827858577	932.0537349416106	980.9915280928699	-310.4056730499161	932.8399192585573	975.1189298172247	-270.1562114443537	1036.757039087183	1015.382752563966	-458.906783779628	1065.4591070189	1012.056249198955	-152.8709207809491	1022.419140464041	853.0681049801061	-490.720089477306	1148.263855649056	680.2331024055234	-408.1700488664221	1035.880759927528	578.6951687221896	-441.72279068734	1024.93885850222	461.1876011997422	-415.0777187182715	1039.920699702674	371.5132146996831	-363.6280725430336	906.1047331659313	270.6919068953341	-408.2199879785989	919.4693334037535	180.8751902401107	-342.1312060767993	817.1174139340344	127.4359930064049	-362.8227021630396	946.4589929252267	57.1214031117279	-364.9264775459825	915.0049598835818	41.74108376594769	-405.9212112909036	745.9536124519484	114.7417623678357	-313.8177341091401	1070.939414859969	842.795499811635	-120.4312358512528	1228.538900503934	717.202318094316	-199.3506746174323	1183.575072493302	592.5137297572603	-146.2131241677651	1188.28298332345	476.1065070088766	-168.5417898239899	1188.621114367244	401.0178173109084	-210.5844776735521	1031.821795980893	372.4884811319291	-157.3249209988046	1016.036499592957	248.7429928935936	-200.772085958749	929.0528890008884	222.8546627242811	-172.9109303217372	998.1155009543799	109.4061876476405	-165.1245420132	954.3400924111847	108.2640053176034	-127.2499946789384	848.8428713427163	243.3247343714704	-234.2662387081158	
